<?xml version="1.0" encoding="utf-8"?>
<svg viewBox="73.294 170.99 464.464 82.722" width="464.464" height="82.722" xmlns="http://www.w3.org/2000/svg">
  <g transform="matrix(1, 0, 0, 1, 146.163132, -184.287888)">
    <path class="st0" d="M-54.637188,411.459137c8.6546249,6.9237061,21.5788651,11.7702942,36.2340317,13.0396423v-61.8517151 h15.924509l38.4265366,30.118103v-30.118103h14.4243774v43.8500977H32.8322182l-36.9263992-29.0795593v46.9657898 c14.8859568-1.1539612,28.2717743-6.0005493,36.9263992-13.0396423h17.4246445 C38.3711815,428.999176,11.5995369,438-11.2486677,438s-49.7352409-8.7700195-61.6209297-26.4254761h18.2324104V411.459137z" style="fill: rgb(115, 202, 235);"/>
  </g>
  <g transform="matrix(1, 0, 0, 1, 146.163132, -184.287888)">
    <path class="st1" d="M65.6777649,361.6982422h5.7602539v2.4599609h0.0595703 c0.5-1.0600586,1.2602539-1.7749023,2.2802734-2.1450195s2.2998047-0.5551758,3.8398438-0.5551758 c0.6000977,0,1.2250977,0.0151367,1.875,0.0449219c0.6499023,0.0302734,1.2900391,0.1103516,1.9199219,0.2402344 c0.6303711,0.1303711,1.2348633,0.3349609,1.8149414,0.6147461c0.5800781,0.2802734,1.0849609,0.6704102,1.5151367,1.1699219 c0.4296875,0.5004883,0.7749023,1.1303711,1.0351563,1.8901367c0.2597656,0.7602539,0.3901367,1.6904297,0.3901367,2.7900391 v8.7900391h-5.7602539v-8.7900391c0-1.5-1.2402344-2.25-3.7197266-2.25h-1.3203125 c-1.2402344,0-2.2050781,0.2802734-2.8950195,0.8398438c-0.6899414,0.5605469-1.034668,1.390625-1.034668,2.4902344v7.7099609 h-5.7602539V361.6982422z" style="fill: rgb(255, 255, 255);"/>
    <path class="st1" d="M90.6074524,367.5180664c0-1.2602539,0.1899414-2.284668,0.5703125-3.0751953 c0.3793945-0.7895508,0.8745117-1.4047852,1.4848633-1.8447266c0.6098633-0.4399414,1.2900391-0.7397461,2.0400391-0.8999023 s1.4946289-0.2402344,2.2348633-0.2402344h8.6098633c0.7397461,0,1.4853516,0.0800781,2.2353516,0.2402344 s1.4296875,0.4599609,2.0400391,0.8999023c0.6098633,0.4399414,1.1044922,1.0551758,1.4848633,1.8447266 c0.3798828,0.7905273,0.5698242,1.8149414,0.5698242,3.0751953v3.6601563c0,1.2597656-0.1899414,2.2851563-0.5698242,3.074707 c-0.3803711,0.7905273-0.875,1.4052734-1.4848633,1.8452148c-0.6103516,0.4399414-1.2900391,0.7402344-2.0400391,0.8999023 s-1.4956055,0.2402344-2.2353516,0.2402344h-8.6098633c-0.7402344,0-1.4848633-0.0805664-2.2348633-0.2402344 s-1.4301758-0.4599609-2.0400391-0.8999023c-0.6103516-0.4399414-1.1054688-1.0546875-1.4848633-1.8452148 c-0.3803711-0.7895508-0.5703125-1.8149414-0.5703125-3.074707V367.5180664z M96.3677063,370.0678711 c0,1.1000977,0.324707,1.8500977,0.9750977,2.25c0.6494141,0.4003906,1.6347656,0.6000977,2.9545898,0.6000977h1.3803711 c0.9194336,0,1.6694336-0.034668,2.25-0.1049805c0.5795898-0.0698242,1.034668-0.199707,1.3647461-0.3901367 c0.3300781-0.1894531,0.5498047-0.4448242,0.6601563-0.7646484c0.1098633-0.3198242,0.1650391-0.7397461,0.1650391-1.2602539 v-2.1000977c0-0.4995117-0.0551758-0.9150391-0.1650391-1.2446289c-0.1103516-0.3300781-0.3300781-0.5898438-0.6601563-0.7802734 c-0.3300781-0.1899414-0.7851563-0.3198242-1.3647461-0.3901367c-0.5805664-0.0698242-1.3305664-0.1049805-2.25-0.1049805 h-1.3803711c-1.3198242,0-2.3051758,0.2001953-2.9545898,0.6000977c-0.6503906,0.4003906-0.9750977,1.1503906-0.9750977,2.25 V370.0678711z" style="fill: rgb(255, 255, 255);"/>
    <path class="st1" d="M116.316925,361.6982422h5.3999023v2.909668h0.0600586 c0.159668-0.6000977,0.4199219-1.1044922,0.7802734-1.5146484c0.3598633-0.409668,0.7895508-0.7353516,1.2895508-0.9750977 c0.5-0.2402344,1.050293-0.409668,1.6503906-0.5102539c0.5996094-0.0996094,1.2299805-0.1499023,1.8896484-0.1499023 c2.1000977,0,3.6000977,0.4755859,4.5,1.4248047c0.9003906,0.9501953,1.3500977,2.4853516,1.3500977,4.6054688 c0,0.199707-0.0048828,0.4047852-0.0151367,0.6147461s-0.0249023,0.4550781-0.0449219,0.7348633h-4.9799805 c0-0.4799805-0.0351563-0.8999023-0.1049805-1.2597656c-0.0703125-0.3598633-0.2050781-0.6601563-0.4047852-0.8999023 c-0.2001953-0.2402344-0.4799805-0.4204102-0.840332-0.5400391c-0.3598633-0.1201172-0.8300781-0.1801758-1.409668-0.1801758 c-1.0004883,0-1.8105469,0.2001953-2.4301758,0.6000977c-0.6201172,0.4003906-0.9296875,1.0600586-0.9296875,1.9799805v8.4599609 h-5.7602539V361.6982422z" style="fill: rgb(255, 255, 255);"/>
    <path class="st1" d="M136.8066711,367.9682617c0-0.9799805,0.0849609-1.8701172,0.2553711-2.6704102 c0.1694336-0.7993164,0.5395508-1.4848633,1.1098633-2.0546875c0.5698242-0.5703125,1.3950195-1.0097656,2.4750977-1.3203125 c1.0795898-0.3095703,2.5297852-0.4648438,4.3496094-0.4648438h1.7104492c0.5996094,0,1.1845703,0.0449219,1.7548828,0.1352539 c0.5698242,0.0898438,1.0947266,0.2548828,1.574707,0.4946289c0.4799805,0.2402344,0.8798828,0.5551758,1.2001953,0.9453125 c0.3198242,0.3896484,0.5297852,0.8847656,0.6298828,1.4848633h0.0600586v-9.2402344h5.7602539v21.7202148h-5.4003906v-2.8198242 h-0.0600586c-0.1601563,0.4799805-0.375,0.9047852-0.6445313,1.2749023 c-0.2700195,0.3701172-0.6254883,0.6899414-1.0654297,0.9599609s-0.9746094,0.4750977-1.6049805,0.6147461 c-0.6298828,0.1401367-1.375,0.2104492-2.2348633,0.2104492h-1.6801758c-1.8198242,0-3.2700195-0.1552734-4.3496094-0.465332 c-1.0800781-0.3095703-1.9052734-0.75-2.4750977-1.3198242c-0.5703125-0.5703125-0.9404297-1.2548828-1.1098633-2.0551758 c-0.1704102-0.7998047-0.2553711-1.6899414-0.2553711-2.6699219V367.9682617z M142.3867493,370.2480469 c0,0.4199219,0.0302734,0.800293,0.0898438,1.1401367c0.0600586,0.340332,0.1899414,0.6201172,0.3901367,0.8398438 c0.199707,0.2202148,0.5,0.3901367,0.8999023,0.5102539c0.3999023,0.1196289,0.949707,0.1796875,1.6503906,0.1796875h3.3896484 c0.5600586,0,1.0600586-0.0395508,1.5-0.1201172c0.4399414-0.0795898,0.8051758-0.2246094,1.0952148-0.4345703 c0.2895508-0.2104492,0.5097656-0.4951172,0.6601563-0.8554688c0.1499023-0.3598633,0.2246094-0.8295898,0.2246094-1.409668v-1.5 c0-0.5800781-0.074707-1.050293-0.2246094-1.4101563c-0.1503906-0.3598633-0.3706055-0.6450195-0.6601563-0.8549805 c-0.2900391-0.2099609-0.6552734-0.3549805-1.0952148-0.4350586c-0.4399414-0.0795898-0.9399414-0.1201172-1.5-0.1201172 h-3.3896484c-0.7006836,0-1.2504883,0.0600586-1.6503906,0.1801758s-0.7001953,0.2900391-0.8999023,0.5102539 c-0.2001953,0.2202148-0.3300781,0.5-0.3901367,0.8398438c-0.0595703,0.340332-0.0898438,0.7197266-0.0898438,1.1401367 V370.2480469z" style="fill: rgb(255, 255, 255);"/>
    <path class="st1" d="M168.6069641,359.777832h-5.7607422v-4.5h5.7607422V359.777832z M168.6069641,376.9980469h-5.7607422 v-15.2998047h5.7607422V376.9980469z" style="fill: rgb(255, 255, 255);"/>
    <path class="st1" d="M173.0464172,368.5078125c0-1.4399414,0.1699219-2.6196289,0.5097656-3.5395508 s0.8251953-1.6401367,1.4550781-2.1601563c0.6308594-0.5200195,1.375-0.8745117,2.2353516-1.0649414 c0.859375-0.1899414,1.8193359-0.2851563,2.8798828-0.2851563h6.4804688c2.1396484,0,3.8193359,0.4052734,5.0400391,1.2148438 c1.2197266,0.8100586,1.8300781,2.0957031,1.8300781,3.8549805v1.3803711h-5.5800781 c0-0.7802734-0.2402344-1.3300781-0.7207031-1.6503906c-0.4794922-0.3193359-1.3496094-0.4799805-2.609375-0.4799805h-2.2207031 c-1.1992188,0-2.0898438,0.1801758-2.6699219,0.5400391c-0.5800781,0.3603516-0.8701172,0.9599609-0.8701172,1.800293v2.0400391 c0,1,0.2851563,1.6796875,0.8554688,2.0400391c0.5703125,0.3598633,1.3046875,0.5400391,2.2050781,0.5400391h2.9394531 c0.4003906,0,0.7851563-0.0249023,1.1552734-0.0751953c0.3701172-0.0498047,0.7001953-0.1450195,0.9902344-0.2851563 c0.2900391-0.1396484,0.5195313-0.3193359,0.6904297-0.5400391c0.1689453-0.2197266,0.2548828-0.5097656,0.2548828-0.8696289 v-0.3603516h5.5800781v1.3500977c0,1.0200195-0.1953125,1.8701172-0.5849609,2.5498047 c-0.390625,0.6801758-0.9003906,1.2255859-1.5302734,1.6352539c-0.6298828,0.4101563-1.3505859,0.6953125-2.1601563,0.8549805 s-1.625,0.2402344-2.4453125,0.2402344h-5.8798828c-0.9599609,0-1.9052734-0.0703125-2.8349609-0.2104492 c-0.9296875-0.1396484-1.765625-0.4594727-2.5048828-0.9599609c-0.7402344-0.4995117-1.3398438-1.2299805-1.7998047-2.1899414 c-0.4609375-0.9599609-0.6904297-2.2597656-0.6904297-3.8999023V368.5078125z" style="fill: rgb(255, 255, 255);"/>
    <path class="st1" d="M213.2759094,355.277832h5.7597656v8.8803711h0.0595703 c0.5-1.0600586,1.2597656-1.7749023,2.2802734-2.1450195c1.0195313-0.3701172,2.2998047-0.5551758,3.8398438-0.5551758 c0.5996094,0,1.2246094,0.0151367,1.875,0.0449219c0.6494141,0.0302734,1.2900391,0.1103516,1.9199219,0.2402344 c0.6298828,0.1303711,1.234375,0.3349609,1.8154297,0.6147461c0.5791016,0.2802734,1.0839844,0.6704102,1.5146484,1.1699219 c0.4296875,0.5004883,0.7753906,1.1303711,1.0351563,1.8901367c0.2597656,0.7602539,0.3896484,1.6904297,0.3896484,2.7900391 v8.7900391h-5.7597656v-8.7900391c0-1.5-1.2402344-2.25-3.7197266-2.25h-1.3203125 c-1.2402344,0-2.2050781,0.2802734-2.8945313,0.8398438c-0.6904297,0.5605469-1.0351563,1.390625-1.0351563,2.4902344v7.7099609 h-5.7597656V355.277832z" style="fill: rgb(255, 255, 255);"/>
    <path class="st1" d="M237.6352844,371.6279297c0-1.0395508,0.1806641-1.8544922,0.5400391-2.4448242 c0.3603516-0.5898438,0.8955078-1.0297852,1.6054688-1.3198242s1.5898438-0.4697266,2.6396484-0.5400391 c1.0507813-0.0698242,2.2753906-0.1049805,3.6757813-0.1049805c0.7792969,0,1.4794922,0.0102539,2.0996094,0.0297852 c0.6191406,0.0200195,1.1748047,0.0703125,1.6650391,0.1499023c0.4892578,0.0800781,0.9150391,0.2055664,1.2744141,0.375 c0.3603516,0.1704102,0.6796875,0.3950195,0.9609375,0.675293v-1.3500977c0-0.3798828-0.0351563-0.699707-0.1054688-0.9599609 c-0.0703125-0.2597656-0.2050781-0.4697266-0.4052734-0.6303711c-0.2001953-0.159668-0.4746094-0.2744141-0.8251953-0.3447266 c-0.3496094-0.0698242-0.8046875-0.1049805-1.3642578-0.1049805h-3.390625c-0.8398438,0-1.4150391,0.0703125-1.7246094,0.2099609 c-0.3105469,0.1401367-0.4755859,0.4799805-0.4951172,1.0200195h-5.5800781c0-1.0395508,0.1298828-1.875,0.390625-2.5048828 c0.2587891-0.6303711,0.6689453-1.1147461,1.2294922-1.4550781c0.5595703-0.3398438,1.2753906-0.5703125,2.1455078-0.6899414 c0.8691406-0.1201172,1.9140625-0.1801758,3.1347656-0.1801758h6.6894531c2,0,3.5107422,0.4604492,4.5302734,1.3798828 c1.0205078,0.9204102,1.5302734,2.2905273,1.5302734,4.1103516v10.0498047h-5.4599609v-1.7402344 c-0.4003906,0.4204102-0.7558594,0.7553711-1.0654297,1.0053711c-0.3105469,0.25-0.640625,0.449707-0.9902344,0.6000977 c-0.3496094,0.1499023-0.7597656,0.2495117-1.2294922,0.2998047c-0.4707031,0.0498047-1.0654297,0.0751953-1.7851563,0.0751953 h-3.9296875c-0.8808594,0-1.6757813-0.0556641-2.3857422-0.1650391c-0.7099609-0.1098633-1.3144531-0.3251953-1.8144531-0.6450195 s-0.8847656-0.7651367-1.1552734-1.3349609c-0.2695313-0.5703125-0.4052734-1.3051758-0.4052734-2.2050781V371.6279297z M247.8960266,373.6381836c0.9794922,0,1.7597656-0.034668,2.3398438-0.1049805 c0.5800781-0.0698242,1.0146484-0.1748047,1.3046875-0.3149414s0.4746094-0.3100586,0.5556641-0.5102539 c0.0791016-0.199707,0.1191406-0.4296875,0.1191406-0.6899414c0-0.2797852-0.0351563-0.5200195-0.1044922-0.7202148 c-0.0703125-0.199707-0.2255859-0.3598633-0.4648438-0.4799805c-0.2402344-0.1196289-0.5908203-0.2099609-1.0498047-0.2700195 c-0.4609375-0.0595703-1.0908203-0.0898438-1.890625-0.0898438h-2.5498047c-0.5996094,0-1.0947266,0.0351563-1.4853516,0.1049805 c-0.3896484,0.0703125-0.6894531,0.1801758-0.8994141,0.3300781s-0.3554688,0.3349609-0.4355469,0.5551758 s-0.1201172,0.4902344-0.1201172,0.8095703c0,0.5004883,0.2207031,0.8554688,0.6601563,1.0654297 s1.2304688,0.3149414,2.3701172,0.3149414H247.8960266z" style="fill: rgb(255, 255, 255);"/>
    <path class="st1" d="M262.14505,361.6982422h5.4902344v3h0.0595703c0.1601563-1.1000977,0.6953125-1.9150391,1.6054688-2.4453125 c0.9091797-0.5297852,2.0742188-0.7949219,3.4951172-0.7949219h2.1894531c2.7001953,0,4.5898438,1.1904297,5.6699219,3.5698242 c0.2402344-0.6796875,0.5048828-1.2495117,0.7949219-1.7099609c0.2900391-0.4594727,0.6455078-0.8295898,1.0654297-1.1098633 c0.4199219-0.2797852,0.9199219-0.4746094,1.5-0.5849609c0.5800781-0.1098633,1.2792969-0.1650391,2.0996094-0.1650391h1.7705078 c1.3193359,0,2.4296875,0.1552734,3.3300781,0.4648438c0.8994141,0.3105469,1.6347656,0.7607422,2.2050781,1.3500977 c0.5693359,0.590332,0.9794922,1.3154297,1.2294922,2.175293s0.375,1.840332,0.375,2.9399414v8.6098633h-5.7597656v-8.2202148 c0-0.5195313-0.0449219-0.9599609-0.1347656-1.3198242s-0.2753906-0.6494141-0.5556641-0.8701172 c-0.2802734-0.2197266-0.6748047-0.3793945-1.1845703-0.4799805c-0.5097656-0.0996094-1.1855469-0.1499023-2.0253906-0.1499023 c-1.3798828,0-2.375,0.1850586-2.984375,0.5551758c-0.6103516,0.3701172-0.9150391,1.0551758-0.9150391,2.0546875v8.4301758 h-5.7607422v-8.6699219c0-0.4799805-0.0546875-0.8701172-0.1640625-1.1699219 c-0.1103516-0.300293-0.3154297-0.5400391-0.6152344-0.7202148s-0.7255859-0.3046875-1.2753906-0.375 c-0.5498047-0.0698242-1.2548828-0.1049805-2.1152344-0.1049805c-1.2402344,0-2.1552734,0.2001953-2.7441406,0.6000977 c-0.5908203,0.4003906-0.8857422,1.1899414-0.8857422,2.3701172v8.0698242H262.14505V361.6982422z" style="fill: rgb(255, 255, 255);"/>
    <path class="st1" d="M299.5854797,355.277832h5.7597656v9.2402344h0.0595703 c0.0800781-0.6000977,0.2851563-1.0952148,0.6152344-1.4848633c0.3300781-0.3901367,0.7353516-0.7050781,1.2148438-0.9453125 c0.4804688-0.2397461,1.0048828-0.4047852,1.5751953-0.4946289c0.5703125-0.090332,1.1552734-0.1352539,1.7548828-0.1352539 h1.7099609c1.8193359,0,3.2705078,0.1552734,4.3496094,0.4648438c1.0800781,0.3105469,1.9052734,0.75,2.4755859,1.3203125 c0.5703125,0.5698242,0.9394531,1.2553711,1.1103516,2.0546875c0.1689453,0.800293,0.2548828,1.6904297,0.2548828,2.6704102 v2.7597656c0,0.9799805-0.0859375,1.8701172-0.2548828,2.6699219c-0.1708984,0.800293-0.5400391,1.4848633-1.1103516,2.0551758 c-0.5703125,0.5698242-1.3955078,1.0102539-2.4755859,1.3198242c-1.0791016,0.3100586-2.5302734,0.465332-4.3496094,0.465332 h-1.6796875c-0.8808594,0-1.6308594-0.0703125-2.25-0.2104492c-0.6201172-0.1396484-1.1503906-0.3447266-1.5898438-0.6147461 c-0.4404297-0.2700195-0.7949219-0.5898438-1.0654297-0.9599609c-0.2695313-0.3701172-0.4853516-0.7949219-0.6445313-1.2749023 h-0.0605469v2.8198242h-5.3994141V355.277832z M304.9848938,370.0981445c0,0.5800781,0.0751953,1.0498047,0.2255859,1.409668 c0.1494141,0.3603516,0.3691406,0.6450195,0.6591797,0.8554688c0.2900391,0.2099609,0.6503906,0.3549805,1.0800781,0.4345703 c0.4296875,0.0805664,0.9345703,0.1201172,1.515625,0.1201172h3.3896484c0.6796875,0,1.2246094-0.0600586,1.6347656-0.1796875 c0.4101563-0.1201172,0.7148438-0.2900391,0.9150391-0.5102539c0.2001953-0.2197266,0.3300781-0.4995117,0.390625-0.8398438 c0.0595703-0.3398438,0.0898438-0.7202148,0.0898438-1.1401367v-1.7998047c0-0.4204102-0.0302734-0.7998047-0.0898438-1.1401367 c-0.0605469-0.3398438-0.1904297-0.6196289-0.390625-0.8398438s-0.5048828-0.3901367-0.9150391-0.5102539 s-0.9550781-0.1801758-1.6347656-0.1801758h-3.3896484c-0.5810547,0-1.0859375,0.0405273-1.515625,0.1201172 c-0.4296875,0.0800781-0.7900391,0.2250977-1.0800781,0.4350586s-0.5097656,0.4951172-0.6591797,0.8549805 c-0.1503906,0.3598633-0.2255859,0.8300781-0.2255859,1.4101563V370.0981445z" style="fill: rgb(255, 255, 255);"/>
    <path class="st1" d="M345.3940735,376.9980469h-5.7597656v-2.4599609h-0.0595703 c-0.5205078,1.0600586-1.2861328,1.7749023-2.2949219,2.1450195c-1.0107422,0.3696289-2.2851563,0.5551758-3.8251953,0.5551758 c-0.6005859,0-1.2255859-0.0151367-1.875-0.0454102c-0.6503906-0.0297852-1.2900391-0.1098633-1.9199219-0.2397461 s-1.2353516-0.3349609-1.8154297-0.6152344c-0.5800781-0.2797852-1.0849609-0.6699219-1.5146484-1.1699219 c-0.4306641-0.4995117-0.7753906-1.1293945-1.0351563-1.8901367c-0.2607422-0.7597656-0.3896484-1.6894531-0.3896484-2.7895508 v-8.7900391h5.7597656v8.7900391c0,1.5,1.2392578,2.25,3.7197266,2.25h1.3203125 c1.2392578,0,2.2050781-0.2802734,2.8945313-0.840332c0.6904297-0.5595703,1.0351563-1.3896484,1.0351563-2.4897461v-7.7099609 h5.7597656V376.9980469z" style="fill: rgb(255, 255, 255);"/>
    <path class="st1" d="M350.2251282,361.6982422h5.3994141v2.909668h0.0605469 c0.1591797-0.6000977,0.4199219-1.1044922,0.7792969-1.5146484c0.3603516-0.409668,0.7900391-0.7353516,1.2900391-0.9750977 c0.5-0.2402344,1.0498047-0.409668,1.6503906-0.5102539c0.5996094-0.0996094,1.2294922-0.1499023,1.8896484-0.1499023 c2.1005859,0,3.6005859,0.4755859,4.5,1.4248047c0.9003906,0.9501953,1.3505859,2.4853516,1.3505859,4.6054688 c0,0.199707-0.0058594,0.4047852-0.015625,0.6147461s-0.0253906,0.4550781-0.0449219,0.7348633h-4.9794922 c0-0.4799805-0.0351563-0.8999023-0.1054688-1.2597656s-0.2050781-0.6601563-0.4052734-0.8999023 c-0.2001953-0.2402344-0.4794922-0.4204102-0.8398438-0.5400391c-0.359375-0.1201172-0.8300781-0.1801758-1.4101563-0.1801758 c-1,0-1.8095703,0.2001953-2.4296875,0.6000977c-0.6201172,0.4003906-0.9296875,1.0600586-0.9296875,1.9799805v8.4599609 h-5.7597656V361.6982422z" style="fill: rgb(255, 255, 255);"/>
    <path class="st1" d="M370.714386,367.4580078c0-1.1796875,0.1503906-2.1601563,0.4501953-2.9399414 s0.7451172-1.3950195,1.3349609-1.8452148c0.5898438-0.449707,1.3242188-0.7646484,2.2050781-0.9448242 c0.8798828-0.1801758,1.8896484-0.2700195,3.0302734-0.2700195h3.359375c0.7207031,0,1.3203125,0.0302734,1.7998047,0.0898438 c0.4804688,0.0600586,0.9003906,0.175293,1.2607422,0.3452148c0.359375,0.1699219,0.6894531,0.4047852,0.9892578,0.7050781 c0.3007813,0.2998047,0.6308594,0.7001953,0.9902344,1.199707h0.0605469v-2.0996094h5.3994141v14.3398438 c0,0.800293-0.0898438,1.5751953-0.2695313,2.3251953c-0.1806641,0.75-0.5605469,1.4194336-1.140625,2.0097656 c-0.5800781,0.5898438-1.4150391,1.0649414-2.5048828,1.4248047c-1.0898438,0.3603516-2.5351563,0.5400391-4.3349609,0.5400391 h-6.359375c-0.9599609,0-1.8203125-0.0703125-2.5800781-0.2099609c-0.7607422-0.1401367-1.3955078-0.3852539-1.9052734-0.7348633 c-0.5097656-0.3500977-0.9003906-0.8354492-1.1699219-1.4550781c-0.2705078-0.6201172-0.4052734-1.4101563-0.4052734-2.3701172 h5.9404297c0,0.3603516,0.1201172,0.6450195,0.359375,0.8549805c0.2402344,0.2099609,0.5898438,0.3154297,1.0507813,0.3154297 h4.1699219c1.2597656,0,2.1992188-0.2402344,2.8193359-0.7202148s0.9306641-1.3696289,0.9306641-2.6699219v-1.0200195 c-0.2802734,0.2802734-0.5654297,0.5200195-0.8554688,0.7197266c-0.2900391,0.2001953-0.625,0.3652344-1.0048828,0.4951172 c-0.3798828,0.1303711-0.8349609,0.2250977-1.3652344,0.2851563s-1.1748047,0.0898438-1.9345703,0.0898438h-3.0302734 c-1.4003906,0-2.5644531-0.1347656-3.4951172-0.4047852c-0.9296875-0.2700195-1.6748047-0.675293-2.234375-1.215332 c-0.5605469-0.5400391-0.9599609-1.2045898-1.2001953-1.9946289s-0.3603516-1.7050781-0.3603516-2.7451172V367.4580078z M382.6245422,371.777832c0.7197266,0,1.3046875-0.0493164,1.7548828-0.1499023 c0.4501953-0.0996094,0.8046875-0.2700195,1.0654297-0.5097656c0.2597656-0.2402344,0.4394531-0.5551758,0.5400391-0.9453125 c0.0996094-0.3896484,0.1494141-0.8745117,0.1494141-1.4545898s-0.0498047-1.0698242-0.1494141-1.4702148 c-0.1005859-0.3999023-0.2802734-0.7202148-0.5400391-0.9599609c-0.2607422-0.2402344-0.6152344-0.4150391-1.0654297-0.5249023 s-1.0351563-0.1650391-1.7548828-0.1650391h-2.8203125c-0.7197266,0-1.3046875,0.0551758-1.7548828,0.1650391 s-0.8046875,0.284668-1.0644531,0.5249023c-0.2607422,0.2397461-0.4404297,0.5600586-0.5400391,0.9599609 c-0.1005859,0.4003906-0.1503906,0.8901367-0.1503906,1.4702148s0.0498047,1.0649414,0.1503906,1.4545898 c0.0996094,0.3901367,0.2792969,0.7050781,0.5400391,0.9453125c0.2597656,0.2397461,0.6142578,0.4101563,1.0644531,0.5097656 c0.4501953,0.1005859,1.0351563,0.1499023,1.7548828,0.1499023H382.6245422z" style="fill: rgb(255, 255, 255);"/>
  </g>
  <g transform="matrix(1, 0, 0, 1, 146.163132, -184.287888)">
    <path class="st1" d="M82.026886,390.9985352h2.1298828v15.4794922c0,0.2998047-0.0297852,0.5698242-0.0297852,0.8701172 c-0.0600586,0.4799805-0.1499023,2.0996094-1.1699219,3.3896484c-1.2602539,1.5297852-3.5698242,1.7397461-5.3398438,1.9199219 H72.45755c-2.1298828-0.1201172-4.3198242-0.2099609-5.7299805-1.7099609 c-0.5698242-0.5698242-0.7797852-1.1098633-0.8696289-1.409668c-0.2402344-0.6899414-0.2700195-1.3798828-0.300293-2.1298828 l2.4301758,0.0297852c0,0.9301758,0,1.6499023,0.7197266,2.3398438c0.8100586,0.7797852,2.0097656,0.8398438,3.1796875,0.8701172 h5.2797852c0.3300781,0,0.6000977,0,0.9003906-0.0302734c0.9897461-0.0600586,2.0097656-0.2998047,2.7895508-0.9599609 c1.2602539-1.0200195,1.2602539-2.909668,1.1699219-5.9394531c-0.6298828,0.6298828-1.2900391,1.2900391-2.0097656,1.6796875 c-0.9897461,0.5400391-2.1000977,0.5703125-3.2998047,0.6000977h-4.409668c-1.800293,0-3.3300781-0.0297852-4.8598633-1.1098633 c-0.2700195-0.2099609-0.8100586-0.6298828-1.2299805-1.3198242c-0.6601563-1.0200195-1.050293-2.7001953-1.050293-5.3398438 c0-0.2099609-0.0595703-3.3598633,1.050293-5.0097656c0.4799805-0.6899414,1.199707-1.1699219,1.4399414-1.2900391 c1.1699219-0.6899414,2.6699219-1.1401367,5.3398438-1.1401367h2.1899414 c1.9794922,0.0302734,3.8994141-0.0600586,5.609375,0.9599609c0.5400391,0.3598633,0.8999023,0.7202148,1.3803711,1.1699219 L82.026886,390.9985352z M67.5376282,399.5185547c0,0.2397461-0.0600586,2.699707,1.4399414,3.7797852 c1.4101563,0.9897461,3.75,0.75,5.2797852,0.7797852c0.6601563,0,1.3198242,0.0297852,1.9799805,0.0297852 c0.3300781,0,3.1499023,0.1201172,4.6796875-1.3496094c0.2099609-0.2099609,0.5698242-0.6298828,0.8398438-1.3798828 c0.2700195-0.840332,0.3300781-1.7700195,0.3300781-3.6000977c0-2.3696289-0.449707-4.2597656-3.0595703-4.7998047 c-0.75-0.1499023-2.2202148-0.2099609-4.1098633-0.2099609c-1.0800781,0-2.1298828,0-3.2402344,0.0600586 c-1.4697266,0.1201172-2.5795898,0.2998047-3.3896484,1.5297852c-0.8999023,1.3798828-0.8100586,2.9702148-0.7797852,4.5 C67.507843,399.0683594,67.5376282,399.3081055,67.5376282,399.5185547z" style="fill: rgb(255, 255, 255);"/>
    <path class="st1" d="M91.9570618,390.9985352v2.2797852c0.1503906-0.1499023,0.5703125-0.7797852,1.1103516-1.2294922 c1.4995117-1.2001953,3.8696289-1.1699219,5.609375-1.1699219c2.1303711,0,4.6201172,0.2099609,5.6098633,2.4594727 c0.4501953,1.0200195,0.4799805,2.1000977,0.4501953,4.3198242h-2.1899414 c0.0297852-2.3999023-0.0600586-3.5996094-1.2001953-4.3198242c-0.75-0.4799805-1.4995117-0.5996094-3.1499023-0.5996094 c-1.199707,0-2.0996094,0.1196289-2.6098633,0.2099609c-1.9199219,0.3295898-2.5795898,0.9897461-2.9697266,1.7700195 c-0.5400391,1.0195313-0.5698242,2.1298828-0.6000977,3.2094727v8.0698242h-2.2197266v-14.9995117H91.9570618z" style="fill: rgb(255, 255, 255);"/>
    <path class="st1" d="M108.2471008,392.7685547c0.4799805-0.5400391,0.9599609-0.8999023,1.5898438-1.199707 c1.9199219-0.8701172,5.0698242-0.8100586,7.0498047-0.8100586c1.0795898,0,2.159668,0,3.2397461,0.0898438 c1.6796875,0.0898438,3.2397461,0.2998047,4.5,1.4697266c0.2397461,0.2104492,0.5698242,0.5400391,0.8999023,1.1401367 c0.449707,0.8398438,0.8398438,2.1899414,0.8398438,4.3798828c0,0.6000977-0.0297852,1.199707-0.0600586,1.8300781 c-0.1201172,1.4697266-0.3598633,3.2998047-1.3198242,4.5297852c-1.3798828,1.7998047-4.409668,2.1298828-6.449707,2.1298828 c-1.0800781,0-2.1298828-0.0600586-3.1801758-0.0898438c-0.9296875-0.0302734-1.8896484,0-2.8198242-0.0600586 c-0.4799805-0.0600586-2.8198242-0.2099609-4.199707-1.6801758c-1.3798828-1.4697266-1.5297852-3.8999023-1.5600586-5.7294922 C106.7168274,396.6083984,106.776886,394.4785156,108.2471008,392.7685547z M109.3266907,401.1982422 c0.1201172,0.4501953,0.5400391,1.9799805,1.8901367,2.5498047c0.9599609,0.4199219,2.9697266,0.5703125,5.4296875,0.5703125 c1.0200195,0,2.0698242-0.0302734,3.1201172-0.090332c1.6499023-0.0898438,2.3696289-0.4199219,2.9697266-0.9296875 c0.2402344-0.2099609,0.6000977-0.5102539,0.8398438-1.1401367c0.4799805-1.2001953,0.4799805-3.2397461,0.4799805-3.3598633 c0-0.4501953-0.0297852-0.9301758-0.0600586-1.4101563c-0.0898438-2.3696289-0.659668-3.3598633-1.7094727-4.0195313 c-1.2602539-0.75-2.7001953-0.6298828-4.0800781-0.6601563c-0.75,0-1.5-0.0297852-2.25-0.0297852 c-0.8701172,0-1.7700195,0.0297852-2.6699219,0.0898438c-1.409668,0.1201172-2.5498047,0.3598633-3.3295898,1.5898438 c-0.7802734,1.2299805-0.7802734,2.6401367-0.8100586,3.9897461 C109.1167297,398.5585938,109.0571594,400.1181641,109.3266907,401.1982422z" style="fill: rgb(255, 255, 255);"/>
    <path class="st1" d="M133.5371399,390.9985352v8.4599609c0,0.2700195,0.0297852,0.5395508,0.0297852,0.8398438 c0.0600586,0.8999023,0.2402344,1.7998047,0.8701172,2.5795898c0.9599609,1.1704102,2.6699219,1.1401367,4.199707,1.2001953 c0.6601563,0.0600586,1.2900391,0.0898438,1.9199219,0.0898438c0.4199219,0,2.8798828,0.0600586,4.5297852-1.1699219 c0.5703125-0.4199219,0.8100586-0.7797852,0.9599609-1.0498047c0.3901367-0.6899414,0.5102539-1.3798828,0.5703125-3.1499023 v-7.7998047h2.2197266v14.9995117h-2.25v-2.4897461c-0.3300781,0.4199219-0.5698242,0.75-0.9296875,1.1098633 c-1.4702148,1.3798828-3.6899414,1.5-5.5498047,1.5c-2.4301758,0-5.7597656,0.0898438-7.5600586-1.9501953 c-1.0195313-1.1699219-1.1098633-2.5795898-1.2299805-4.1699219v-8.9995117H133.5371399z" style="fill: rgb(255, 255, 255);"/>
    <path class="st1" d="M156.3667297,390.9985352v2.0698242c0.1201172-0.1796875,0.4804688-0.659668,0.9301758-1.0195313 c0.840332-0.7202148,2.0395508-1.1103516,4.3500977-1.2001953c1.0498047-0.0297852,2.0996094-0.0600586,3.1201172-0.0600586 c0.0898438,0,3.8691406-0.0898438,5.7294922,1.050293c1.4101563,0.8696289,2.3994141,2.5795898,2.3994141,5.9697266 c0,0.3598633-0.0292969,2.0698242-0.2392578,3.449707c-0.1503906,0.8398438-0.390625,1.7700195-0.8105469,2.4897461 c-0.5703125,0.9301758-1.4101563,1.5-1.7402344,1.6801758c-1.1699219,0.659668-2.3691406,0.6899414-3.7197266,0.75h-5.0693359 c-2.4296875-0.1503906-3-0.300293-4.9199219-1.800293v7.7998047h-2.3999023v-21.1791992H156.3667297z M157.1767883,402.578125 c0.5102539,0.7802734,1.1098633,1.0498047,1.4399414,1.1699219c1.0800781,0.3901367,3.2099609,0.4199219,5.9101563,0.4199219 c2.0996094,0,3.0292969-0.0600586,3.9892578-0.4799805c0.2402344-0.0898438,0.7207031-0.3295898,1.1103516-0.8100586 c0.6298828-0.7797852,0.9296875-1.9794922,0.9296875-3.9897461c0-0.5097656,0-1.0498047-0.0292969-1.5898438 c-0.0605469-1.8896484-0.390625-3.3295898-2.2207031-4.1098633c-0.9599609-0.4199219-1.7392578-0.4199219-3.6298828-0.4199219 c-1.5,0-2.9697266,0.0302734-4.4990234,0.1801758c-1.8300781,0.2099609-2.4604492,0.5996094-3.0004883,1.3496094 c-0.8398438,1.1699219-0.8398438,2.550293-0.8398438,3.8701172 C156.3369446,399.668457,156.276886,401.2280273,157.1767883,402.578125z" style="fill: rgb(255, 255, 255);"/>
  </g>
</svg>